HIERARCHY
ROOT Hips
{
 OFFSET 0.000000 0.000000 0.000000
 CHANNELS 6 Xposition Yposition Zposition Yrotation Xrotation Zrotation
 JOINT Chest
 {
  OFFSET 0.000000 9.585900 0.002600
  CHANNELS 3 Yrotation Xrotation Zrotation
  JOINT Chest2
  {
   OFFSET 0.000000 9.601200 -0.005300
   CHANNELS 3 Yrotation Xrotation Zrotation
   JOINT Chest3
   {
    OFFSET 0.000000 9.561800 0.000000
    CHANNELS 3 Yrotation Xrotation Zrotation
    JOINT Chest4
    {
     OFFSET 0.000000 9.552100 0.000000
     CHANNELS 3 Yrotation Xrotation Zrotation
     JOINT Neck
     {
      OFFSET 0.000000 14.453000 0.000000
      CHANNELS 3 Yrotation Xrotation Zrotation
      JOINT Head
      {
       OFFSET 0.000000 8.936500 -0.011300
       CHANNELS 3 Yrotation Xrotation Zrotation
       End Site
       {
        OFFSET 0.000000 17.073600 -0.006000
       }
      }
     }
     JOINT RightCollar
     {
      OFFSET -2.921100 9.558500 0.000000
      CHANNELS 3 Yrotation Xrotation Zrotation
      JOINT RightShoulder
      {
       OFFSET -13.519700 0.000000 0.000000
       CHANNELS 3 Yrotation Xrotation Zrotation
       JOINT RightElbow
       {
        OFFSET 0.000000 -29.696600 0.000000
        CHANNELS 3 Yrotation Xrotation Zrotation
        JOINT RightWrist
        {
         OFFSET 0.000000 -24.004700 0.000000
         CHANNELS 3 Yrotation Xrotation Zrotation
         End Site
         {
          OFFSET 0.000000 -17.728500 0.000000
         }
        }
       }
      }
     }
     JOINT LeftCollar
     {
      OFFSET 2.921100 9.558500 0.000000
      CHANNELS 3 Yrotation Xrotation Zrotation
      JOINT LeftShoulder
      {
       OFFSET 13.519700 0.000000 0.000000
       CHANNELS 3 Yrotation Xrotation Zrotation
       JOINT LeftElbow
       {
        OFFSET 0.000000 -29.696600 0.000000
        CHANNELS 3 Yrotation Xrotation Zrotation
        JOINT LeftWrist
        {
         OFFSET 0.000000 -24.004700 0.000000
         CHANNELS 3 Yrotation Xrotation Zrotation
         End Site
         {
          OFFSET 0.000000 -17.728500 0.000000
         }
        }
       }
      }
     }
    }
   }
  }
 }
 JOINT RightHip
 {
  OFFSET -7.771700 -0.012900 -0.001300
  CHANNELS 3 Yrotation Xrotation Zrotation
  JOINT RightKnee
  {
   OFFSET 0.000000 -40.869800 0.001200
   CHANNELS 3 Yrotation Xrotation Zrotation
   JOINT RightAnkle
   {
    OFFSET 0.000000 -39.717900 0.002100
    CHANNELS 3 Yrotation Xrotation Zrotation
    JOINT RightToe
    {
     OFFSET 0.000000 -4.965400 11.033500
     CHANNELS 3 Yrotation Xrotation Zrotation
     End Site
     {
      OFFSET 0.000000 -1.423100 5.872300
     }
    }
   }
  }
 }
 JOINT LeftHip
 {
  OFFSET 7.771700 -0.012900 -0.001300
  CHANNELS 3 Yrotation Xrotation Zrotation
  JOINT LeftKnee
  {
   OFFSET 0.000000 -40.869800 0.001200
   CHANNELS 3 Yrotation Xrotation Zrotation
   JOINT LeftAnkle
   {
    OFFSET 0.000000 -39.717900 0.002100
    CHANNELS 3 Yrotation Xrotation Zrotation
    JOINT LeftToe
    {
     OFFSET 0.000000 -4.965400 11.033500
     CHANNELS 3 Yrotation Xrotation Zrotation
     End Site
     {
      OFFSET 0.000000 -1.423100 5.872300
     }
    }
   }
  }
 }
}
MOTION
Frames: 12
Frame Time: 0.008333
0.000000 85.388000 0.000000 0.000000 -5.767877 0.000000 0.000000 11.653817 0.000000 0.000000 -5.885947 0.000000 0.000000 -0.000000 0.000000 0.000000 -0.000000 0.000000 0.000000 12.528835 0.000000 0.000000 0.711642 0.000000 0.000000 -0.000000 0.000000 0.000000 0.000000 -90.000000 0.000000 -2.309062 0.000000 0.000000 2.309062 0.000000 0.000000 -0.000000 0.000000 0.000000 -0.000000 90.000000 0.000000 -2.309062 0.000000 0.000000 2.309062 0.000000 0.000000 8.520406 0.000000 0.000000 1.905762 0.000000 -0.000000 -4.658285 0.000000 0.000000 -0.000000 0.000000 0.000000 8.520406 0.000000 0.000000 1.905762 0.000000 -0.000000 -4.658285 0.000000 0.000000 -0.000000 0.000000
-239.233320 56.981744 144.357550 174.670441 -49.247721 1.645943 0.972632 25.744536 4.225409 0.004212 4.256200 0.721875 0.032145 6.775617 1.151616 0.584377 21.151863 3.737272 -4.607007 18.172183 -2.638571 -7.607799 -2.069939 -3.349368 7.967431 0.293036 -2.064190 9.439674 -22.172360 -8.806313 166.579805 -47.069657 -151.901933 11.019744 -13.142474 -49.610187 -9.947549 -0.932860 -2.437111 6.231836 -12.165315 -3.566157 171.980217 -51.563584 170.530022 -8.778912 -12.952254 32.417163 8.896448 -27.227986 -5.866666 -13.009696 63.574975 -12.197429 3.805619 30.037319 -0.496115 -0.975839 -16.108901 7.846723 -7.237116 -25.061681 0.215130 25.413759 66.024438 23.683202 -12.508330 11.264746 -4.541454 0.109826 0.157312 0.166318
-239.235622 56.974872 144.359575 174.696822 -49.223681 1.647227 0.907482 25.730367 4.199388 -0.012977 4.259203 0.727999 0.034416 6.772380 1.147023 0.576879 21.149678 3.728870 -4.591412 18.146333 -2.684273 -7.506800 -2.131179 -3.506577 8.115672 0.357910 -2.062137 9.505623 -22.186015 -8.857544 167.009308 -47.284047 -152.089454 11.081985 -13.289386 -49.483967 -10.025454 -0.957479 -2.457328 6.041761 -12.077923 -3.623078 171.684541 -51.700649 170.693323 -8.812329 -12.886571 32.271089 8.883930 -27.250696 -5.895774 -12.999933 63.579008 -12.188083 3.791215 30.023833 -0.499974 -0.957407 -16.115232 7.835405 -7.246233 -25.096975 0.207622 25.315871 66.009615 23.580067 -12.500802 11.357448 -4.566427 0.149017 0.158827 0.146323
-239.235316 56.970573 144.359327 174.685480 -49.221797 1.664026 0.898855 25.732500 4.189820 -0.026434 4.262248 0.733437 0.042638 6.769261 1.141465 0.548084 21.151435 3.738420 -4.564635 18.116107 -2.730970 -7.390169 -2.201769 -3.660973 8.244055 0.419210 -2.060169 9.573901 -22.211449 -8.921149 167.468086 -47.480743 -152.298357 11.148092 -13.444302 -49.372423 -10.094833 -0.979770 -2.479581 5.853802 -12.010804 -3.668923 171.402177 -51.853383 170.842422 -8.837988 -12.763752 32.065668 8.886012 -27.252575 -5.903237 -13.013197 63.579766 -12.205179 3.806065 30.010684 -0.497127 -0.960944 -16.121883 7.832608 -7.235916 -25.104500 0.204261 25.263565 66.002754 23.529469 -12.504630 11.411424 -4.576682 0.143219 0.156388 0.133174
-239.234669 56.965170 144.360119 174.693286 -49.212288 1.664775 0.845047 25.738066 4.181660 -0.042931 4.261518 0.737884 0.042808 6.771179 1.139127 0.517041 21.152443 3.739720 -4.505061 18.072798 -2.807697 -7.257164 -2.276454 -3.811559 8.390068 0.476785 -2.090767 9.640629 -22.247103 -8.997311 167.956366 -47.654267 -152.528256 11.217969 -13.602372 -49.284167 -10.118968 -1.013100 -2.530359 5.670160 -11.962278 -3.705428 171.132306 -52.022779 170.972285 -8.855395 -12.557576 31.774154 8.881779 -27.263358 -5.911084 -13.043273 63.581992 -12.233122 3.806019 29.999850 -0.492082 -0.958507 -16.130983 7.821375 -7.255668 -25.127503 0.216073 25.217693 66.007623 23.470411 -12.518060 11.466489 -4.589570 0.134011 0.152123 0.123039
-239.234248 56.958325 144.362382 174.721607 -49.191652 1.651529 0.778722 25.727582 4.169391 -0.057498 4.260607 0.743393 0.003315 6.776503 1.153156 0.514274 21.150261 3.713701 -4.430632 18.030951 -2.875964 -7.111941 -2.352373 -3.956729 8.524967 0.538562 -2.118168 9.703035 -22.293828 -9.087303 168.473485 -47.803645 -152.777394 11.289401 -13.760168 -49.223198 -10.127274 -1.041929 -2.571301 5.500674 -11.930225 -3.734157 170.857988 -52.207201 171.086709 -8.874683 -12.252065 31.383172 8.849410 -27.284284 -5.910001 -13.072762 63.575973 -12.278017 3.804550 29.995722 -0.494658 -0.955435 -16.137969 7.818808 -7.299722 -25.161296 0.221628 25.079641 66.019245 23.333641 -12.481371 11.518204 -4.620255 0.123571 -0.150347 -0.010522
-239.230514 56.954793 144.362256 174.722252 -49.196998 1.641707 0.738621 25.739731 4.179164 -0.038967 4.258273 0.733318 0.009797 6.776317 1.149316 0.458553 21.154172 3.739442 -4.351432 17.985608 -2.947547 -6.958552 -2.426148 -4.091819 8.637653 0.601279 -2.151378 9.760176 -22.352006 -9.194387 169.024211 -47.934090 -153.043945 11.366305 -13.916174 -49.191318 -10.100030 -1.061926 -2.620203 5.326285 -11.923085 -3.745002 170.556249 -52.406451 171.193109 -8.903572 -11.861438 30.896167 8.800573 -27.280566 -5.865326 -13.070351 63.566820 -12.321331 3.800922 29.990290 -0.495423 -0.951312 -16.135434 7.821983 -7.338560 -25.168672 0.244528 25.083830 66.028026 23.328960 -12.505242 11.555208 -4.655821 0.132530 -1.012290 -0.373160
-239.227330 56.951262 144.362359 174.713011 -49.202360 1.643076 0.689876 25.748264 4.182427 -0.007157 4.260004 0.718476 -0.014953 6.776896 1.159280 0.435121 21.153745 3.741457 -4.280233 17.952276 -3.007182 -6.784420 -2.506146 -4.220745 8.727273 0.664661 -2.176698 9.811921 -22.421959 -9.322684 169.617832 -48.049319 -153.334575 11.449119 -14.074802 -49.183359 -10.112205 -1.094543 -2.646677 5.223916 -11.914729 -3.753813 170.216258 -52.616706 171.300931 -8.951486 -11.416179 30.328585 8.780686 -27.278576 -5.838570 -13.072321 63.564396 -12.348756 3.801410 29.990190 -0.498423 -0.963837 -16.152842 7.831615 -7.366261 -25.178078 0.266252 25.101801 66.035238 23.337433 -12.549747 11.605477 -4.708633 0.160572 -2.026600 -0.773952
-239.224411 56.946372 144.363802 174.722625 -49.197978 1.630848 0.679002 25.743134 4.187736 -0.057197 4.245227 0.737258 -0.025987 6.771409 1.159397 0.442907 21.165130 3.726587 -4.241256 17.952465 -3.049767 -6.574430 -2.601953 -4.351978 8.788884 0.735060 -2.191301 9.866490 -22.505884 -9.477596 170.252849 -48.150990 -153.650019 11.533273 -14.238454 -49.192643 -10.124127 -1.117143 -2.663592 5.136890 -11.918274 -3.750719 169.832218 -52.828060 171.425792 -9.028810 -10.934117 29.693184 8.756476 -27.286353 -5.816827 -13.082250 63.564156 -12.382562 3.810868 29.984546 -0.487889 -0.944029 -16.172412 7.825014 -7.400925 -25.193745 0.288446 25.107461 66.041113 23.331451 -12.574051 11.625312 -4.738749 0.175338 -2.814270 -1.101086
-239.222703 56.942023 144.364828 174.729146 -49.198261 1.627197 0.645466 25.737470 4.184704 -0.047025 4.247464 0.730443 -0.045920 6.762200 1.163035 0.379966 21.142602 3.734821 -4.078540 17.913310 -3.132742 -6.433408 -2.605107 -4.437798 8.878558 0.811190 -2.229307 9.927803 -22.589116 -9.646739 170.919285 -48.243834 -153.973965 11.618437 -14.403969 -49.217382 -10.070265 -1.110292 -2.709706 5.045922 -11.938426 -3.729844 169.405487 -53.037535 171.575350 -9.134396 -10.432553 29.003867 8.747961 -27.287878 -5.809333 -13.088506 63.566033 -12.405217 3.820967 29.980339 -0.464393 -0.967427 -16.189143 7.821438 -7.428113 -25.209998 0.308447 25.097302 66.056929 23.307240 -12.610732 11.660354 -4.775838 0.208355 -3.464417 -1.351630
-239.222061 56.939188 144.364552 174.711467 -49.210313 1.646583 0.609757 25.739713 4.169400 -0.023771 4.254187 0.722862 -0.068707 6.755700 1.167685 0.355908 21.139390 3.729658 -3.969508 17.885754 -3.174216 -6.259011 -2.622217 -4.532963 8.933828 0.860069 -2.245815 9.993125 -22.701789 -9.845087 171.611840 -48.334795 -154.297474 11.706810 -14.565460 -49.249470 -10.045601 -1.123658 -2.728532 4.962537 -11.966964 -3.699656 168.952014 -53.247004 171.736119 -9.260743 -9.931323 28.282796 8.749089 -27.279724 -5.797443 -13.103070 63.570104 -12.445175 3.831563 29.976353 -0.453450 -0.969011 -16.211355 7.824995 -7.415423 -25.203097 0.303870 25.085842 66.060829 23.297665 -12.625273 11.669587 -4.795560 0.227905 -3.966178 -1.556711
-239.223345 56.936439 144.364243 174.696855 -49.222064 1.671958 0.598162 25.749287 4.151781 -0.040475 4.248739 0.726532 -0.072361 6.756932 1.164383 0.352302 21.141112 3.723021 -3.921214 17.879373 -3.192809 -6.046755 -2.651507 -4.637525 8.956802 0.921189 -2.247063 10.078012 -22.874726 -10.086737 172.326116 -48.432163 -154.620113 11.796029 -14.723335 -49.274461 -10.036926 -1.139759 -2.735766 4.874498 -12.009456 -3.667526 168.492907 -53.451798 171.894157 -9.394839 -9.441048 27.541715 8.762388 -27.274362 -5.798359 -13.129755 63.580135 -12.492028 3.824284 29.979923 -0.434059 -0.966758 -16.242777 7.817742 -7.397991 -25.196611 0.288894 25.073101 66.064914 23.286408 -12.635419 11.674185 -4.812436 0.249338 -4.364462 -1.717724
